<?xml version="1.0" standalone="no"?>
<!DOCTYPE svg PUBLIC "-//W3C//DTD SVG 20010904//EN"
 "http://www.w3.org/TR/2001/REC-SVG-20010904/DTD/svg10.dtd">
<svg version="1.0" xmlns="http://www.w3.org/2000/svg"
 width="260.000000pt" height="260.000000pt" viewBox="0 0 260.000000 260.000000"
 preserveAspectRatio="xMidYMid meet">
<metadata>
Created by potrace 1.11, written by Peter Selinger 2001-2013
</metadata>
<g transform="translate(0.000000,260.000000) scale(0.100000,-0.100000)"
fill="#000000" stroke="none">
<path d="M1300 1945 l0 -555 30 0 c27 0 30 -3 30 -30 l0 -30 555 0 555 0 0
555 0 555 -29 0 c-25 0 -30 4 -33 28 l-3 27 -552 3 -553 2 0 -555z"/>
<path d="M77 1303 c-9 -8 -9 -1066 -1 -1087 4 -10 18 -16 35 -16 26 0 29 -4
29 -30 l0 -30 555 0 555 0 0 555 0 555 -30 0 c-27 0 -30 3 -30 30 l0 30 -553
0 c-305 0 -557 -3 -560 -7z"/>
<path d="M1300 755 l0 -555 30 0 c27 0 30 -3 30 -30 l0 -30 555 0 555 0 0 555
0 555 -30 0 c-27 0 -30 3 -30 30 l0 30 -555 0 -555 0 0 -555z"/>
</g>
</svg>
